<?xml version="1.0" encoding="UTF-8" standalone="no"?>
<svg width="46px" height="46px" viewBox="0 0 46 46" version="1.1" xmlns="http://www.w3.org/2000/svg" xmlns:xlink="http://www.w3.org/1999/xlink">
    <g stroke="none" stroke-width="1" fill="none" fill-rule="evenodd">
        <path d="M31.64,23.205c0,-0.639 -0.057,-1.252 -0.164,-1.841l-13.476,0l0,3.481l7.704,0c-0.332,1.789 -1.339,3.307 -2.853,4.321l0,3.595l4.622,0c2.702,-2.487 4.167,-6.147 4.167,-9.556Z" fill="#4285F4"/>
        <path d="M18,32c3.86,0 7.098,-1.281 9.462,-3.469l-4.622,-3.595c-1.281,0.857 -2.918,1.364 -4.84,1.364c-3.723,0 -6.877,-2.514 -8.001,-5.895l-4.783,0l0,3.711c2.352,4.671 7.189,7.884 12.784,7.884Z" fill="#34A853"/>
        <path d="M9.999,20.405c-0.286,-0.857 -0.449,-1.774 -0.449,-2.715c0,-0.941 0.163,-1.858 0.449,-2.715l0,-3.711l-4.783,0c-0.971,1.936 -1.525,4.119 -1.525,6.426c0,2.307 0.554,4.49 1.525,6.426l4.783,-3.711Z" fill="#FBBC05"/>
        <path d="M18,9.18c2.099,0 3.981,0.721 5.468,2.137l4.101,-4.101c-2.474,-2.307 -5.712,-3.716 -9.569,-3.716c-5.595,0 -10.432,3.213 -12.784,7.884l4.783,3.711c1.124,-3.381 4.278,-5.895 8.001,-5.895Z" fill="#EA4335"/>
    </g>
</svg> 